<svg width="136" height="117" viewBox="0 0 136 117" fill="none" xmlns="http://www.w3.org/2000/svg">
<path d="M117.5 93.9C105.525 109.286 74.4544 129.125 39.5 103.721M39.5 103.721H46.944M39.5 103.721L40.7946 111.251" stroke="url(#paint0_linear_1286_50877)" stroke-width="1.8" stroke-linecap="round"/>
<path d="M28.5 22.9C40.4751 7.51369 71.5456 -12.3248 106.5 13.079M106.5 13.079L99.056 13.079M106.5 13.079L105.205 5.54949" stroke="url(#paint1_linear_1286_50877)" stroke-width="1.8" stroke-linecap="round"/>
<g filter="url(#filter0_dddd_1286_50877)">
<mask id="mask0_1286_50877" style="mask-type:luminance" maskUnits="userSpaceOnUse" x="11" y="19" width="124" height="79">
<path d="M126.835 19.6315H19.1646C14.6554 19.6315 11 23.2869 11 27.7961V89.5409C11 94.0501 14.6554 97.7055 19.1646 97.7055H126.835C131.345 97.7055 135 94.0501 135 89.5409V27.7961C135 23.2869 131.345 19.6315 126.835 19.6315Z" fill="white"/>
</mask>
<g mask="url(#mask0_1286_50877)">
<path d="M143.547 14.5284H0.92181C-3.58738 14.5284 -7.2428 18.1839 -7.2428 22.693V97.1951C-7.2428 101.704 -3.58737 105.36 0.921819 105.36H143.547C148.056 105.36 151.712 101.704 151.712 97.1951V22.6931C151.712 18.1839 148.056 14.5284 143.547 14.5284Z" fill="url(#paint2_linear_1286_50877)"/>
<ellipse cx="7" cy="54.4" rx="75" ry="53.5" fill="#D9D9D9"/>
<ellipse cx="7" cy="54.4" rx="75" ry="53.5" fill="url(#paint3_linear_1286_50877)"/>
</g>
<path d="M19.165 19.7819H126.835C131.261 19.7819 134.85 23.3702 134.85 27.7965V89.5406C134.85 93.967 131.261 97.5553 126.835 97.5553H19.165C14.7387 97.5553 11.1504 93.967 11.1504 89.5406V27.7965C11.1504 23.3702 14.7387 19.7819 19.165 19.7819Z" stroke="url(#paint4_linear_1286_50877)" stroke-width="0.3"/>
<path d="M122.794 49.9271C122.794 48.3452 122.187 46.9011 121.197 45.8193C121.079 45.6917 120.88 45.6815 120.758 45.804C120.646 45.9163 120.641 46.0949 120.743 46.2122C121.641 47.192 122.192 48.4932 122.192 49.9271C122.192 51.361 121.636 52.6674 120.732 53.6471C120.625 53.7645 120.635 53.9431 120.743 54.0554C120.865 54.1778 121.064 54.1676 121.181 54.0401C122.176 52.9531 122.789 51.509 122.789 49.922L122.794 49.9271Z" fill="#A7AEB8"/>
<path d="M120.891 49.9273C120.891 48.871 120.498 47.9065 119.85 47.1666C119.737 47.0339 119.533 47.0288 119.411 47.1513C119.298 47.2636 119.293 47.437 119.395 47.5544C119.952 48.1872 120.293 49.0189 120.293 49.9273C120.293 50.8356 119.952 51.6724 119.39 52.3052C119.288 52.4226 119.293 52.6012 119.406 52.7083C119.528 52.8308 119.727 52.8257 119.844 52.693C120.498 51.9531 120.896 50.9836 120.896 49.9222L120.891 49.9273Z" fill="#A7AEB8"/>
<path d="M118.972 49.9272C118.972 49.4016 118.793 48.9219 118.492 48.5341C118.385 48.3963 118.171 48.3861 118.048 48.5137C117.941 48.6209 117.936 48.7944 118.028 48.9168C118.242 49.1975 118.375 49.5496 118.375 49.9272C118.375 50.3048 118.242 50.662 118.023 50.9478C117.926 51.0702 117.931 51.2386 118.043 51.3509C118.166 51.4785 118.38 51.4683 118.487 51.3305C118.793 50.9427 118.972 50.4579 118.972 49.9272Z" fill="#A7AEB8"/>
<path d="M35.4888 44.8754H26.0382C24.7813 44.8754 23.7623 45.8943 23.7623 47.1513V52.7032C23.7623 53.9601 24.7813 54.9791 26.0382 54.9791H35.4888C36.7457 54.9791 37.7646 53.9601 37.7646 52.7032V47.1513C37.7646 45.8943 36.7457 44.8754 35.4888 44.8754Z" fill="url(#paint5_linear_1286_50877)"/>
<path d="M27.5077 48.3452C28.4926 48.3452 29.2938 47.5441 29.2938 46.5592C29.2938 45.5743 28.4926 44.7732 27.5077 44.7732V44.9722C28.3803 44.9722 29.0896 45.6815 29.0896 46.5541C29.0896 47.4267 28.3803 48.136 27.5077 48.136H23.7673V48.335H27.0485V51.5039H23.7673V51.7029H27.5077C28.3803 51.7029 29.0896 52.4122 29.0896 53.2848C29.0896 54.1574 28.3803 54.8667 27.5077 54.8667V55.0657C28.4926 55.0657 29.2938 54.2646 29.2938 53.2797C29.2938 52.2948 28.4926 51.4937 27.5077 51.4937H27.2475V48.3248H27.5077V48.3452Z" fill="#A7AEB8"/>
<path d="M37.7646 48.3454V48.1464H34.0242C33.1516 48.1464 32.4423 47.4371 32.4423 46.5645C32.4423 45.6919 33.1516 44.9826 34.0242 44.9826V44.7836C33.0394 44.7836 32.2382 45.5847 32.2382 46.5696C32.2382 47.5544 33.0394 48.3556 34.0242 48.3556H34.2845V51.5245H34.0242C33.0394 51.5245 32.2382 52.3256 32.2382 53.3105C32.2382 54.2953 33.0394 55.0965 34.0242 55.0965V54.8975C33.1516 54.8975 32.4423 54.1882 32.4423 53.3156C32.4423 52.443 33.1516 51.7337 34.0242 51.7337H37.7646V51.5347H34.4835V48.3658H37.7646V48.3454Z" fill="#A7AEB8"/>
<path d="M31.33 50.065V44.9264H31.1309V50.065H31.33Z" fill="#A7AEB8"/>
<path d="M34.3508 49.9476H27.1302V50.1466H34.3508V49.9476Z" fill="#A7AEB8"/>
<path d="M30.3093 54.979V49.9781H30.1103V54.979H30.3093Z" fill="#A7AEB8"/>
<path d="M35.4887 44.8754H26.0382C24.7813 44.8754 23.7623 45.8943 23.7623 47.1513V52.7032C23.7623 53.9601 24.7813 54.9791 26.0382 54.9791H35.4887C36.7457 54.9791 37.7646 53.9601 37.7646 52.7032V47.1513C37.7646 45.8943 36.7457 44.8754 35.4887 44.8754Z" stroke="#A7AEB8" stroke-width="0.2"/>
<path d="M18.9758 52.9175L15.7303 49.672L18.9758 46.4215V52.9175Z" fill="white"/>
<path d="M58.815 76.4163C58.815 76.901 58.6925 77.2837 58.4424 77.5644C58.1924 77.8451 57.8607 77.9828 57.4372 77.9828C57.0136 77.9828 56.6819 77.84 56.4319 77.5593C56.1768 77.2786 56.0543 76.8959 56.0543 76.4112V75.2171C56.0543 74.7323 56.1819 74.3496 56.4319 74.0689C56.6819 73.7883 57.0187 73.6454 57.4372 73.6454C57.8556 73.6454 58.1924 73.7883 58.4424 74.0689C58.6925 74.3496 58.8201 74.7323 58.8201 75.2171V76.4112L58.815 76.4163ZM58.1108 75.115C58.1108 74.8344 58.0495 74.6149 57.9322 74.4516C57.8148 74.2935 57.6464 74.2118 57.4321 74.2118C57.2177 74.2118 57.0494 74.2935 56.932 74.4516C56.8146 74.6098 56.7534 74.8293 56.7534 75.115V76.5183C56.7534 76.8041 56.8146 77.0286 56.932 77.1868C57.0494 77.345 57.2178 77.4266 57.4372 77.4266C57.6566 77.4266 57.8199 77.345 57.9373 77.1919C58.0546 77.0337 58.1108 76.8092 58.1108 76.5234V75.1201V75.115Z" fill="#A7AEB8"/>
<path d="M62.1829 76.4163C62.1829 76.901 62.0604 77.2837 61.8104 77.5644C61.5603 77.8451 61.2286 77.9828 60.8051 77.9828C60.3815 77.9828 60.0499 77.84 59.7998 77.5593C59.5447 77.2786 59.4222 76.8959 59.4222 76.4112V75.2171C59.4222 74.7323 59.5498 74.3496 59.7998 74.0689C60.0499 73.7883 60.3867 73.6454 60.8051 73.6454C61.2235 73.6454 61.5603 73.7883 61.8104 74.0689C62.0604 74.3496 62.188 74.7323 62.188 75.2171V76.4112L62.1829 76.4163ZM61.4838 75.115C61.4838 74.8344 61.4225 74.6149 61.3052 74.4516C61.1878 74.2935 61.0194 74.2118 60.8051 74.2118C60.5908 74.2118 60.4224 74.2935 60.305 74.4516C60.1876 74.6098 60.1264 74.8293 60.1264 75.115V76.5183C60.1264 76.8041 60.1876 77.0286 60.305 77.1868C60.4224 77.345 60.5908 77.4266 60.8102 77.4266C61.0296 77.4266 61.1929 77.345 61.3103 77.1919C61.4276 77.0337 61.4838 76.8092 61.4838 76.5234V75.1201V75.115Z" fill="#A7AEB8"/>
<path d="M63.1422 78.2839H62.4941L64.1526 73.7067H64.8006L63.1422 78.2839Z" fill="#A7AEB8"/>
<path d="M67.9848 76.4163C67.9848 76.901 67.8624 77.2837 67.6123 77.5644C67.3623 77.8451 67.0306 77.9828 66.6071 77.9828C66.1835 77.9828 65.8518 77.84 65.6018 77.5593C65.3467 77.2786 65.2242 76.8959 65.2242 76.4112V75.2171C65.2242 74.7323 65.3518 74.3496 65.6018 74.0689C65.8518 73.7883 66.1886 73.6454 66.6071 73.6454C67.0255 73.6454 67.3623 73.7883 67.6123 74.0689C67.8624 74.3496 67.9899 74.7323 67.9899 75.2171V76.4112L67.9848 76.4163ZM67.2806 75.115C67.2806 74.8344 67.2194 74.6149 67.102 74.4516C66.9847 74.2935 66.8163 74.2118 66.602 74.2118C66.3876 74.2118 66.2192 74.2935 66.1019 74.4516C65.9845 74.6098 65.9233 74.8293 65.9233 75.115V76.5183C65.9233 76.8041 65.9845 77.0286 66.1019 77.1868C66.2192 77.345 66.3876 77.4266 66.6071 77.4266C66.8265 77.4266 66.9898 77.345 67.1071 77.1919C67.2245 77.0337 67.2806 76.8092 67.2806 76.5234V75.1201V75.115Z" fill="#A7AEB8"/>
<path d="M71.3528 76.4163C71.3528 76.901 71.2303 77.2837 70.9802 77.5644C70.7302 77.8451 70.3985 77.9828 69.975 77.9828C69.5514 77.9828 69.2198 77.84 68.9697 77.5593C68.7146 77.2786 68.5921 76.8959 68.5921 76.4112V75.2171C68.5921 74.7323 68.7197 74.3496 68.9697 74.0689C69.2198 73.7883 69.5565 73.6454 69.975 73.6454C70.3934 73.6454 70.7302 73.7883 70.9802 74.0689C71.2303 74.3496 71.3579 74.7323 71.3579 75.2171V76.4112L71.3528 76.4163ZM70.6486 75.115C70.6486 74.8344 70.5873 74.6149 70.47 74.4516C70.3526 74.2935 70.1842 74.2118 69.9699 74.2118C69.7556 74.2118 69.5872 74.2935 69.4698 74.4516C69.3524 74.6098 69.2912 74.8293 69.2912 75.115V76.5183C69.2912 76.8041 69.3524 77.0286 69.4698 77.1868C69.5872 77.345 69.7556 77.4266 69.975 77.4266C70.1944 77.4266 70.3577 77.345 70.4751 77.1919C70.5924 77.0337 70.6486 76.8092 70.6486 76.5234V75.1201V75.115Z" fill="#A7AEB8"/>
<path d="M56.682 72.3696L56.7075 72.4768H56.7126L56.7381 72.3747L57.1004 71.3082H57.3709L56.83 72.7676H56.5901L56.0492 71.3082H56.3197L56.682 72.3696Z" fill="#A7AEB8"/>
<path d="M58.2639 72.4258H57.7281L57.6107 72.7676H57.3505L57.8812 71.3082H58.121L58.6466 72.7676H58.3863L58.269 72.4258H58.2639ZM57.7944 72.2216H58.1924L57.9985 71.645H57.9934L57.7944 72.2216Z" fill="#A7AEB8"/>
<path d="M59.0803 72.5687H59.7896V72.7626H58.8252V71.3032H59.0803V72.5687Z" fill="#A7AEB8"/>
<path d="M60.2846 72.7676H60.0294V71.3082H60.2846V72.7676Z" fill="#A7AEB8"/>
<path d="M60.6214 72.7676V71.3082H61.1215C61.3154 71.3082 61.4685 71.3644 61.591 71.4817C61.7134 71.5991 61.7695 71.7471 61.7695 71.9257V72.1451C61.7695 72.3288 61.7083 72.4768 61.591 72.5941C61.4736 72.7115 61.3154 72.7676 61.1215 72.7676H60.6214ZM60.8765 71.5021V72.5737H61.1266C61.2491 72.5737 61.346 72.5329 61.4174 72.4564C61.4889 72.3798 61.5246 72.2778 61.5246 72.1502V71.9257C61.5246 71.8032 61.4889 71.7011 61.4174 71.6246C61.346 71.5481 61.2491 71.5072 61.1266 71.5072H60.8765V71.5021Z" fill="#A7AEB8"/>
<path d="M63.4535 72.1401H62.8411V72.7626H62.586V71.3032H63.5555V71.4971H62.836V71.9462H63.4484V72.1401H63.4535Z" fill="#A7AEB8"/>
<path d="M64.0199 72.1604V72.7676H63.7648V71.3082H64.2853C64.4537 71.3082 64.5863 71.3439 64.6782 71.4205C64.77 71.4919 64.816 71.5991 64.816 71.7369C64.816 71.8134 64.7956 71.8797 64.7547 71.9308C64.7139 71.9869 64.6527 72.0277 64.5761 72.0635C64.6629 72.089 64.7241 72.1298 64.7598 72.191C64.7956 72.2523 64.816 72.3237 64.816 72.4104V72.5329C64.816 72.5737 64.8211 72.6197 64.8313 72.6605C64.8415 72.7013 64.8619 72.7319 64.8874 72.7523V72.7728H64.6272C64.6016 72.7523 64.5812 72.7166 64.5761 72.6707C64.571 72.6248 64.5659 72.5788 64.5659 72.5278V72.4104C64.5659 72.3339 64.5455 72.2778 64.4996 72.2318C64.4537 72.1859 64.3924 72.1655 64.3159 72.1655H64.0148L64.0199 72.1604ZM64.0199 71.9665H64.2751C64.3771 71.9665 64.4486 71.9461 64.4996 71.9104C64.5506 71.8746 64.571 71.8134 64.571 71.7369C64.571 71.6603 64.5506 71.6042 64.4996 71.5634C64.4537 71.5225 64.3822 71.5021 64.2904 71.5021H64.0199V71.9665Z" fill="#A7AEB8"/>
<path d="M66.3213 72.1655C66.3213 72.3441 66.2652 72.4921 66.1478 72.6094C66.0305 72.7268 65.8825 72.7829 65.6937 72.7829C65.5049 72.7829 65.362 72.7268 65.2497 72.6094C65.1375 72.4921 65.0762 72.3441 65.0762 72.1655V71.9001C65.0762 71.7215 65.1324 71.5736 65.2446 71.4562C65.3569 71.3388 65.5049 71.2776 65.6886 71.2776C65.8723 71.2776 66.0254 71.3388 66.1427 71.4562C66.2601 71.5736 66.3162 71.7215 66.3162 71.9001V72.1655H66.3213ZM66.0662 71.9001C66.0662 71.7777 66.0305 71.6807 65.9641 71.5991C65.8978 71.5225 65.8059 71.4817 65.6886 71.4817C65.5712 71.4817 65.4896 71.5225 65.4232 71.5991C65.3569 71.6756 65.3263 71.7777 65.3263 71.9001V72.1655C65.3263 72.288 65.3569 72.39 65.4232 72.4666C65.4896 72.5431 65.5763 72.5839 65.6886 72.5839C65.8008 72.5839 65.8978 72.5431 65.9641 72.4666C66.0305 72.39 66.0662 72.288 66.0662 72.1655V71.9001Z" fill="#A7AEB8"/>
<path d="M67.3572 72.4309H67.3623L67.8012 71.3082H68.1226V72.7676H67.8675V71.7165H67.8624L67.444 72.7676H67.2705L66.8469 71.696H66.8418V72.7676H66.5867V71.3082H66.9184L67.3521 72.4309H67.3572Z" fill="#A7AEB8"/>
<path d="M88.5954 76.4163C88.5954 76.901 88.4729 77.2837 88.2229 77.5644C87.9729 77.8451 87.6412 77.9828 87.2176 77.9828C86.7941 77.9828 86.4624 77.84 86.2124 77.5593C85.9572 77.2786 85.8347 76.8959 85.8347 76.4112V75.2171C85.8347 74.7323 85.9623 74.3496 86.2124 74.0689C86.4624 73.7883 86.7992 73.6454 87.2176 73.6454C87.6361 73.6454 87.9729 73.7883 88.2229 74.0689C88.4729 74.3496 88.6005 74.7323 88.6005 75.2171V76.4112L88.5954 76.4163ZM87.8963 75.115C87.8963 74.8344 87.8351 74.6149 87.7177 74.4516C87.6003 74.2935 87.432 74.2118 87.2176 74.2118C87.0033 74.2118 86.8349 74.2935 86.7175 74.4516C86.6002 74.6098 86.5389 74.8293 86.5389 75.115V76.5183C86.5389 76.8041 86.6002 77.0286 86.7175 77.1868C86.8349 77.345 87.0033 77.4266 87.2227 77.4266C87.4422 77.4266 87.6054 77.345 87.7228 77.1919C87.8402 77.0337 87.8963 76.8092 87.8963 76.5234V75.1201V75.115Z" fill="#A7AEB8"/>
<path d="M91.9684 76.4163C91.9684 76.901 91.8459 77.2837 91.5959 77.5644C91.3458 77.8451 91.0142 77.9828 90.5906 77.9828C90.1671 77.9828 89.8354 77.84 89.5853 77.5593C89.3302 77.2786 89.2077 76.8959 89.2077 76.4112V75.2171C89.2077 74.7323 89.3353 74.3496 89.5853 74.0689C89.8354 73.7883 90.1722 73.6454 90.5906 73.6454C91.0091 73.6454 91.3458 73.7883 91.5959 74.0689C91.8459 74.3496 91.9735 74.7323 91.9735 75.2171V76.4112L91.9684 76.4163ZM91.2642 75.115C91.2642 74.8344 91.203 74.6149 91.0856 74.4516C90.9682 74.2935 90.7998 74.2118 90.5855 74.2118C90.3712 74.2118 90.2028 74.2935 90.0854 74.4516C89.9681 74.6098 89.9068 74.8293 89.9068 75.115V76.5183C89.9068 76.8041 89.9681 77.0286 90.0854 77.1868C90.2028 77.345 90.3712 77.4266 90.5906 77.4266C90.81 77.4266 90.9733 77.345 91.0907 77.1919C91.2081 77.0337 91.2642 76.8092 91.2642 76.5234V75.1201V75.115Z" fill="#A7AEB8"/>
<path d="M92.9226 78.2839H92.2746L93.933 73.7067H94.5811L92.9226 78.2839Z" fill="#A7AEB8"/>
<path d="M97.7653 76.4163C97.7653 76.901 97.6428 77.2837 97.3928 77.5644C97.1427 77.8451 96.811 77.9828 96.3875 77.9828C95.964 77.9828 95.6323 77.84 95.3822 77.5593C95.1271 77.2786 95.0046 76.8959 95.0046 76.4112V75.2171C95.0046 74.7323 95.1322 74.3496 95.3822 74.0689C95.6323 73.7883 95.9691 73.6454 96.3875 73.6454C96.8059 73.6454 97.1427 73.7883 97.3928 74.0689C97.6428 74.3496 97.7704 74.7323 97.7704 75.2171V76.4112L97.7653 76.4163ZM97.0611 75.115C97.0611 74.8344 96.9998 74.6149 96.8825 74.4516C96.7651 74.2935 96.5967 74.2118 96.3824 74.2118C96.1681 74.2118 95.9997 74.2935 95.8823 74.4516C95.7649 74.6098 95.7037 74.8293 95.7037 75.115V76.5183C95.7037 76.8041 95.7649 77.0286 95.8823 77.1868C95.9997 77.345 96.1681 77.4266 96.3875 77.4266C96.6069 77.4266 96.7702 77.345 96.8876 77.1919C97.0049 77.0337 97.0611 76.8092 97.0611 76.5234V75.1201V75.115Z" fill="#A7AEB8"/>
<path d="M101.133 76.4163C101.133 76.901 101.011 77.2837 100.761 77.5644C100.511 77.8451 100.179 77.9828 99.7554 77.9828C99.3319 77.9828 99.0002 77.84 98.7501 77.5593C98.495 77.2786 98.3725 76.8959 98.3725 76.4112V75.2171C98.3725 74.7323 98.5001 74.3496 98.7501 74.0689C99.0002 73.7883 99.337 73.6454 99.7554 73.6454C100.174 73.6454 100.511 73.7883 100.761 74.0689C101.011 74.3496 101.138 74.7323 101.138 75.2171V76.4112L101.133 76.4163ZM100.429 75.115C100.429 74.8344 100.368 74.6149 100.25 74.4516C100.133 74.2935 99.9646 74.2118 99.7503 74.2118C99.536 74.2118 99.3676 74.2935 99.2502 74.4516C99.1329 74.6098 99.0716 74.8293 99.0716 75.115V76.5183C99.0716 76.8041 99.1329 77.0286 99.2502 77.1868C99.3676 77.345 99.536 77.4266 99.7554 77.4266C99.9748 77.4266 100.138 77.345 100.255 77.1919C100.373 77.0337 100.429 76.8092 100.429 76.5234V75.1201V75.115Z" fill="#A7AEB8"/>
<path d="M86.6818 72.1094H86.0848V72.5737H86.7839V72.7676H85.8296V71.3082H86.7788V71.5021H86.0848V71.9155H86.6818V72.1094Z" fill="#A7AEB8"/>
<path d="M87.534 71.8441L87.8555 71.3032H88.1566L87.6871 72.0278L88.1719 72.7626H87.8657L87.534 72.2115L87.2023 72.7626H86.9012L87.3809 72.0278L86.9115 71.3032H87.2074L87.5238 71.8441H87.534Z" fill="#A7AEB8"/>
<path d="M88.626 72.2115V72.7626H88.3709V71.3032H88.9526C89.121 71.3032 89.2537 71.344 89.3455 71.4257C89.4374 71.5073 89.4884 71.6196 89.4884 71.7523C89.4884 71.885 89.4425 71.9972 89.3455 72.084C89.2486 72.1656 89.121 72.2064 88.9526 72.2064H88.626V72.2115ZM88.626 72.0176H88.9526C89.0445 72.0176 89.1159 71.9921 89.1618 71.9462C89.2078 71.9003 89.2333 71.839 89.2333 71.7625C89.2333 71.6859 89.2078 71.6247 89.1618 71.5788C89.1159 71.5278 89.0445 71.5022 88.9526 71.5022H88.626V72.0176Z" fill="#A7AEB8"/>
<path d="M90.0038 72.7676H89.7486V71.3082H90.0038V72.7676Z" fill="#A7AEB8"/>
<path d="M90.6008 72.1604V72.7676H90.3457V71.3082H90.8662C91.0346 71.3082 91.1673 71.3439 91.2591 71.4205C91.351 71.4919 91.3969 71.5991 91.3969 71.7369C91.3969 71.8134 91.3765 71.8797 91.3357 71.9308C91.2948 71.9869 91.2336 72.0277 91.1571 72.0635C91.2438 72.089 91.305 72.1298 91.3408 72.191C91.3765 72.2523 91.3969 72.3237 91.3969 72.4104V72.5329C91.3969 72.5737 91.402 72.6197 91.4122 72.6605C91.4224 72.7013 91.4428 72.7319 91.4683 72.7523V72.7728H91.2081C91.1826 72.7523 91.1622 72.7166 91.1571 72.6707C91.152 72.6248 91.1469 72.5788 91.1469 72.5278V72.4104C91.1469 72.3339 91.1264 72.2778 91.0805 72.2318C91.0346 72.1859 90.9734 72.1655 90.8968 72.1655H90.5957L90.6008 72.1604ZM90.6008 71.9665H90.856C90.958 71.9665 91.0295 71.9461 91.0805 71.9104C91.1315 71.8746 91.152 71.8134 91.152 71.7369C91.152 71.6603 91.1315 71.6042 91.0805 71.5634C91.0346 71.5225 90.9632 71.5021 90.8713 71.5021H90.6008V71.9665Z" fill="#A7AEB8"/>
<path d="M92.5552 72.1094H91.9582V72.5737H92.6573V72.7676H91.703V71.3082H92.6522V71.5021H91.9582V71.9155H92.5552V72.1094Z" fill="#A7AEB8"/>
<path d="M93.6881 72.3901C93.6881 72.3289 93.6676 72.2778 93.6217 72.2421C93.5758 72.2013 93.4993 72.1707 93.3819 72.14C93.2186 72.0992 93.091 72.038 93.0043 71.9717C92.9175 71.9053 92.8716 71.8084 92.8716 71.6961C92.8716 71.5838 92.9226 71.4818 93.0196 71.4052C93.1165 71.3287 93.2441 71.293 93.3972 71.293C93.5605 71.293 93.6932 71.3338 93.7901 71.4205C93.8871 71.5073 93.9381 71.6093 93.933 71.7318L93.6881 71.7369C93.6881 71.6604 93.6625 71.5991 93.6064 71.5532C93.5554 71.5073 93.4839 71.4869 93.3921 71.4869C93.3002 71.4869 93.239 71.5073 93.1931 71.543C93.1472 71.5838 93.1216 71.6298 93.1216 71.691C93.1216 71.7471 93.1472 71.7931 93.1982 71.8288C93.2492 71.8645 93.3309 71.9002 93.4482 71.9308C93.6064 71.9717 93.7289 72.0329 93.8105 72.1043C93.8922 72.1758 93.9381 72.2727 93.9381 72.385C93.9381 72.5075 93.8871 72.6044 93.7901 72.6759C93.6932 72.7473 93.5605 72.783 93.4023 72.783C93.2441 72.783 93.1114 72.7422 92.9992 72.6656C92.8869 72.584 92.8308 72.4768 92.8308 72.334L93.0757 72.3289C93.0757 72.4156 93.1063 72.4819 93.1727 72.5279C93.2339 72.5738 93.3104 72.5942 93.4023 72.5942C93.4942 72.5942 93.5605 72.5738 93.6115 72.5381C93.6625 72.5024 93.6881 72.4513 93.6881 72.3901Z" fill="#A7AEB8"/>
<path d="M95.5812 72.1094H94.9842V72.5737H95.6833V72.7676H94.7291V71.3082H95.6782V71.5021H94.9842V71.9155H95.5812V72.1094Z" fill="#A7AEB8"/>
<path d="M97.1019 72.7676H96.8468L96.1732 71.7165H96.1681V72.7676H95.9129V71.3082H96.1681L96.8417 72.3594H96.8468V71.3082H97.1019V72.7676Z" fill="#A7AEB8"/>
<path d="M97.4183 72.7676V71.3082H97.9184C98.1123 71.3082 98.2654 71.3644 98.3878 71.4817C98.5103 71.5991 98.5664 71.7471 98.5664 71.9257V72.1451C98.5664 72.3288 98.5052 72.4768 98.3878 72.5941C98.2705 72.7115 98.1123 72.7676 97.9184 72.7676H97.4183ZM97.6734 71.5021V72.5737H97.9235C98.0459 72.5737 98.1429 72.5329 98.2143 72.4564C98.2858 72.3798 98.3215 72.2778 98.3215 72.1502V71.9257C98.3215 71.8032 98.2858 71.7011 98.2143 71.6246C98.1429 71.5481 98.0459 71.5072 97.9235 71.5072H97.6734V71.5021Z" fill="#A7AEB8"/>
<rect x="23.2469" y="58.9235" width="20.4115" height="6.63374" rx="3.31687" fill="#D7DFE7"/>
<rect x="49.6118" y="58.9235" width="20.4115" height="6.63374" rx="3.31687" fill="#D7DFE7"/>
<rect x="75.9767" y="58.9235" width="20.4115" height="6.63374" rx="3.31687" fill="#D7DFE7"/>
<rect x="102.342" y="58.9235" width="20.4115" height="6.63374" rx="3.31687" fill="#D7DFE7"/>
<path d="M106.521 32.7356V32.7509C106.536 33.1744 106.398 33.5163 106.113 33.7817C105.827 34.047 105.444 34.1746 104.964 34.1746C104.485 34.1746 104.077 34.0113 103.77 33.6796C103.464 33.3479 103.311 32.9244 103.311 32.409V31.6079C103.311 31.0925 103.459 30.674 103.76 30.3372C104.061 30.0005 104.454 29.8372 104.939 29.8372C105.424 29.8372 105.827 29.9647 106.108 30.2148C106.388 30.4648 106.531 30.8118 106.521 31.2558V31.2711H105.837C105.837 30.9904 105.761 30.7761 105.607 30.623C105.454 30.4699 105.23 30.3985 104.934 30.3985C104.638 30.3985 104.424 30.5107 104.255 30.7404C104.087 30.97 104.005 31.2507 104.005 31.5977V32.4039C104.005 32.7509 104.092 33.0418 104.26 33.2663C104.429 33.4908 104.663 33.6082 104.954 33.6082C105.245 33.6082 105.459 33.5316 105.607 33.3837C105.755 33.2357 105.832 33.0163 105.832 32.7305H106.511L106.521 32.7356Z" fill="#A7AEB8"/>
<path d="M107.909 32.3683V34.1185H107.205V29.9036H108.654C109.123 29.9036 109.486 30.0107 109.741 30.2199C109.996 30.4292 110.123 30.7353 110.123 31.1283C110.123 31.3477 110.067 31.5365 109.955 31.6896C109.843 31.8427 109.68 31.9702 109.46 32.0672C109.7 32.1437 109.868 32.2662 109.976 32.4346C110.083 32.603 110.134 32.8122 110.134 33.0674V33.4194C110.134 33.5419 110.149 33.6644 110.18 33.7818C110.21 33.8991 110.261 33.991 110.333 34.0522V34.1185H109.608C109.532 34.0573 109.481 33.9553 109.46 33.8226C109.44 33.6899 109.43 33.5521 109.43 33.4194V33.0827C109.43 32.8683 109.368 32.6948 109.241 32.5673C109.113 32.4397 108.945 32.3785 108.73 32.3785H107.899L107.909 32.3683ZM107.909 31.8018H108.618C108.899 31.8018 109.103 31.7457 109.236 31.6385C109.368 31.5314 109.43 31.363 109.43 31.1436C109.43 30.9241 109.368 30.766 109.241 30.6435C109.113 30.521 108.919 30.4649 108.659 30.4649H107.914V31.8018H107.909Z" fill="#A7AEB8"/>
<path d="M113.328 32.2201H111.68V33.552H113.624V34.1133H110.976V29.8983H113.604V30.4647H111.68V31.6537H113.328V32.2201Z" fill="#A7AEB8"/>
<path d="M114.257 34.1133V29.8983H115.65C116.186 29.8983 116.619 30.0667 116.956 30.3984C117.293 30.7301 117.456 31.1638 117.456 31.6843V32.3222C117.456 32.8478 117.288 33.2764 116.956 33.6081C116.625 33.9398 116.186 34.1082 115.65 34.1082H114.257V34.1133ZM114.961 30.4647V33.552H115.65C115.987 33.552 116.257 33.4397 116.456 33.2101C116.655 32.9805 116.752 32.6896 116.752 32.3273V31.6843C116.752 31.3271 116.655 31.0363 116.456 30.8066C116.257 30.577 115.987 30.4647 115.65 30.4647H114.961Z" fill="#A7AEB8"/>
<path d="M118.992 34.1133H118.288V29.8983H118.992V34.1133Z" fill="#A7AEB8"/>
<path d="M122.794 30.4647H121.493V34.1133H120.788V30.4647H119.508V29.8983H122.794V30.4647Z" fill="#A7AEB8"/>
<path d="M111.139 39.8491V39.8644C111.154 40.288 111.016 40.6299 110.731 40.8952C110.445 41.1606 110.062 41.2881 109.583 41.2881C109.103 41.2881 108.695 41.1248 108.388 40.7932C108.082 40.4615 107.929 40.0379 107.929 39.5225V38.7214C107.929 38.206 108.077 37.7876 108.378 37.4508C108.679 37.114 109.072 36.9507 109.557 36.9507C110.042 36.9507 110.445 37.0783 110.726 37.3283C111.006 37.5783 111.149 37.9253 111.139 38.3693V38.3846H110.455C110.455 38.1039 110.379 37.8896 110.226 37.7365C110.072 37.5834 109.848 37.512 109.552 37.512C109.256 37.512 109.042 37.6243 108.873 37.8539C108.705 38.0835 108.623 38.3642 108.623 38.7112V39.5174C108.623 39.8644 108.71 40.1553 108.878 40.3798C109.047 40.6043 109.281 40.7217 109.572 40.7217C109.863 40.7217 110.078 40.6452 110.226 40.4972C110.374 40.3492 110.45 40.1298 110.45 39.844H111.129L111.139 39.8491Z" fill="#A7AEB8"/>
<path d="M114.017 40.242H112.522L112.195 41.2268H111.471L112.94 37.0118H113.609L115.063 41.2268H114.338L114.017 40.242ZM112.716 39.6551H113.823L113.282 37.9916H113.267L112.716 39.6551Z" fill="#A7AEB8"/>
<path d="M116.288 39.4765V41.2268H115.584V37.0118H117.033C117.502 37.0118 117.865 37.119 118.12 37.3282C118.375 37.5374 118.502 37.8436 118.502 38.2365C118.502 38.456 118.446 38.6448 118.334 38.7978C118.222 38.9509 118.058 39.0785 117.839 39.1755C118.079 39.252 118.247 39.3745 118.354 39.5429C118.462 39.7113 118.513 39.9205 118.513 40.1756V40.5277C118.513 40.6502 118.528 40.7727 118.559 40.89C118.589 41.0074 118.64 41.0992 118.712 41.1605V41.2268H117.987C117.91 41.1656 117.859 41.0635 117.839 40.9309C117.819 40.7982 117.808 40.6604 117.808 40.5277V40.1909C117.808 39.9766 117.747 39.8031 117.62 39.6755C117.492 39.548 117.324 39.4867 117.109 39.4867H116.278L116.288 39.4765ZM116.288 38.9152H116.997C117.278 38.9152 117.482 38.8591 117.614 38.7519C117.747 38.6448 117.808 38.4764 117.808 38.2569C117.808 38.0375 117.747 37.8793 117.62 37.7569C117.492 37.6344 117.298 37.5783 117.038 37.5783H116.293V38.9152H116.288Z" fill="#A7AEB8"/>
<path d="M119.36 41.2268V37.0118H120.753C121.289 37.0118 121.722 37.1802 122.059 37.5119C122.396 37.8436 122.559 38.2774 122.559 38.7978V39.4357C122.559 39.9613 122.391 40.3899 122.059 40.7216C121.727 41.0533 121.289 41.2217 120.753 41.2217H119.36V41.2268ZM120.059 37.5783V40.6655H120.748C121.084 40.6655 121.355 40.5532 121.554 40.3236C121.753 40.094 121.85 39.8031 121.85 39.4408V38.7978C121.85 38.4406 121.753 38.1498 121.554 37.9202C121.355 37.6905 121.084 37.5783 120.748 37.5783H120.059Z" fill="#A7AEB8"/>
<path d="M26.2372 86.0658V86.0811C26.2525 86.5046 26.1147 86.8465 25.8289 87.1119C25.5432 87.3772 25.1605 87.5048 24.6808 87.5048C24.2011 87.5048 23.7929 87.3415 23.4867 87.0098C23.1805 86.6781 23.0275 86.2546 23.0275 85.7392V84.9381C23.0275 84.4227 23.1754 84.0042 23.4765 83.6674C23.7776 83.3306 24.1705 83.1674 24.6553 83.1674C25.1401 83.1674 25.5432 83.2949 25.8238 83.545C26.1096 83.8001 26.2474 84.142 26.2372 84.586V84.6013H25.5534C25.5534 84.3206 25.4768 84.1063 25.3238 83.9532C25.1707 83.8001 24.9461 83.7287 24.6502 83.7287C24.3542 83.7287 24.1399 83.8409 23.9715 84.0706C23.8031 84.3002 23.7215 84.5809 23.7215 84.9279V85.7341C23.7215 86.0811 23.8082 86.372 23.9766 86.5965C24.145 86.821 24.3797 86.9384 24.6706 86.9384C24.9615 86.9384 25.1758 86.8618 25.3238 86.7139C25.4717 86.5659 25.5483 86.3465 25.5483 86.0607H26.227L26.2372 86.0658Z" fill="#A7AEB8"/>
<path d="M29.1152 86.4586H27.62L27.2935 87.4435H26.5688L28.0385 83.2285H28.707L30.1613 87.4435H29.4367L29.1152 86.4586ZM27.8191 85.8718H28.9264L28.3855 84.2083H28.3702L27.8191 85.8718Z" fill="#A7AEB8"/>
<path d="M31.386 85.6932V87.4435H30.6818V83.2285H32.131C32.6004 83.2285 32.9627 83.3357 33.2179 83.5449C33.473 83.7592 33.6006 84.0603 33.6006 84.4532C33.6006 84.6726 33.5445 84.8563 33.4322 85.0145C33.32 85.1727 33.1567 85.2952 32.9372 85.3921C33.1771 85.4687 33.3455 85.5912 33.4526 85.7595C33.5598 85.9279 33.6108 86.1423 33.6108 86.3923V86.7444C33.6108 86.8669 33.6261 86.9893 33.6567 87.1067C33.6874 87.2241 33.7384 87.3159 33.8098 87.3772V87.4435H33.0852C33.0087 87.3823 32.9576 87.2802 32.9372 87.1475C32.9168 87.0149 32.9066 86.8771 32.9066 86.7444V86.4076C32.9066 86.1933 32.8454 86.0198 32.7178 85.8922C32.5953 85.7646 32.4218 85.7034 32.2075 85.7034H31.3758L31.386 85.6932ZM31.386 85.1268H32.0953C32.3759 85.1268 32.58 85.0707 32.7127 84.9635C32.8454 84.8563 32.9066 84.6879 32.9066 84.4685C32.9066 84.2491 32.8454 84.0909 32.7178 83.9684C32.5902 83.846 32.3963 83.7898 32.1361 83.7898H31.3911V85.1268H31.386Z" fill="#A7AEB8"/>
<path d="M34.4579 87.4435V83.2285H35.851C36.3868 83.2285 36.8205 83.3969 37.1573 83.7286C37.4941 84.0603 37.6574 84.494 37.6574 85.0145V85.6524C37.6574 86.178 37.489 86.6066 37.1573 86.9383C36.8205 87.27 36.3868 87.4384 35.851 87.4384H34.4579V87.4435ZM35.1621 83.7898V86.8771H35.851C36.1878 86.8771 36.4582 86.7648 36.6572 86.5352C36.8562 86.3056 36.9532 86.0147 36.9532 85.6524V85.0094C36.9532 84.6522 36.8562 84.3614 36.6572 84.1317C36.4582 83.9021 36.1878 83.7898 35.851 83.7898H35.1621Z" fill="#A7AEB8"/>
<path d="M41.7193 87.4435H41.0151V85.6473H39.1321V87.4435H38.4279V83.2285H39.1321V85.0809H41.0151V83.2285H41.7193V87.4435Z" fill="#A7AEB8"/>
<path d="M45.9139 85.7137C45.9139 86.2291 45.7506 86.6577 45.4291 86.9945C45.1076 87.3313 44.6841 87.5048 44.1687 87.5048C43.6533 87.5048 43.2553 87.3364 42.9389 86.9945C42.6225 86.6577 42.4644 86.2291 42.4644 85.7137V84.9533C42.4644 84.4379 42.6225 84.0144 42.9389 83.6725C43.2553 83.3306 43.6635 83.1622 44.1687 83.1622C44.6739 83.1622 45.1025 83.3306 45.4291 83.6725C45.7557 84.0144 45.9139 84.4379 45.9139 84.9533V85.7137ZM45.2097 84.9482C45.2097 84.5961 45.1179 84.3104 44.929 84.0808C44.7402 83.8562 44.4902 83.744 44.1687 83.744C43.8472 83.744 43.6125 83.8562 43.4339 84.0808C43.2553 84.3053 43.1686 84.5961 43.1686 84.9482V85.7137C43.1686 86.0709 43.2604 86.3617 43.439 86.5863C43.6176 86.8108 43.8625 86.9282 44.1738 86.9282C44.4851 86.9282 44.7504 86.8159 44.9342 86.5914C45.123 86.3668 45.2148 86.076 45.2148 85.7188V84.9533L45.2097 84.9482Z" fill="#A7AEB8"/>
<path d="M47.3631 86.8771H49.3379V87.4384H46.6589V83.2234H47.3631V86.8771Z" fill="#A7AEB8"/>
<path d="M49.9349 87.4435V83.2285H51.328C51.8638 83.2285 52.2976 83.3969 52.6344 83.7286C52.9712 84.0603 53.1344 84.494 53.1344 85.0145V85.6524C53.1344 86.178 52.966 86.6066 52.6344 86.9383C52.2976 87.27 51.8638 87.4384 51.328 87.4384H49.9349V87.4435ZM50.6391 83.7898V86.8771H51.328C51.6648 86.8771 51.9353 86.7648 52.1343 86.5352C52.3333 86.3056 52.4302 86.0147 52.4302 85.6524V85.0094C52.4302 84.6522 52.3333 84.3614 52.1343 84.1317C51.9353 83.9021 51.6648 83.7898 51.328 83.7898H50.6391Z" fill="#A7AEB8"/>
<path d="M56.2574 85.5452H54.6092V86.8771H56.5534V87.4384H53.905V83.2234H56.533V83.7898H54.6092V84.9788H56.2574V85.5452Z" fill="#A7AEB8"/>
<path d="M57.8903 85.6932V87.4435H57.1861V83.2285H58.6353C59.1048 83.2285 59.4671 83.3357 59.7223 83.5449C59.9774 83.7592 60.105 84.0603 60.105 84.4532C60.105 84.6726 60.0488 84.8563 59.9366 85.0145C59.8243 85.1727 59.661 85.2952 59.4416 85.3921C59.6814 85.4687 59.8498 85.5912 59.957 85.7595C60.0641 85.9279 60.1152 86.1423 60.1152 86.3923V86.7444C60.1152 86.8669 60.1305 86.9893 60.1611 87.1067C60.1917 87.2241 60.2427 87.3159 60.3142 87.3772V87.4435H59.5896C59.513 87.3823 59.462 87.2802 59.4416 87.1475C59.4212 87.0149 59.411 86.8771 59.411 86.7444V86.4076C59.411 86.1933 59.3497 86.0198 59.2222 85.8922C59.0997 85.7646 58.9262 85.7034 58.7119 85.7034H57.8801L57.8903 85.6932ZM57.8903 85.1268H58.5996C58.8803 85.1268 59.0844 85.0707 59.2171 84.9635C59.3497 84.8563 59.411 84.6879 59.411 84.4685C59.411 84.2491 59.3497 84.0909 59.2222 83.9684C59.0946 83.846 58.9007 83.7898 58.6404 83.7898H57.8954V85.1268H57.8903Z" fill="#A7AEB8"/>
<path d="M65.7284 87.4435H65.0242L63.1565 84.4073H63.1412V87.4435H62.437V83.2285H63.1412L65.0089 86.2647H65.0242V83.2285H65.7284V87.4435Z" fill="#A7AEB8"/>
<path d="M68.8565 86.4586H67.3613L67.0347 87.4435H66.3101L67.7798 83.2285H68.4482L69.9026 87.4435H69.1779L68.8565 86.4586ZM67.5603 85.8718H68.6677L68.1267 84.2083H68.1114L67.5603 85.8718Z" fill="#A7AEB8"/>
<path d="M72.5611 86.4688H72.5764L73.796 83.2285H74.6941V87.4435H73.9899V84.4175H73.9746L72.8162 87.4435H72.3315L71.1527 84.3563H71.1374V87.4435H70.4332V83.2285H71.3568L72.5662 86.4688H72.5611Z" fill="#A7AEB8"/>
<path d="M77.9345 85.5452H76.2862V86.8771H78.2304V87.4384H75.582V83.2234H78.21V83.7898H76.2862V84.9788H77.9345V85.5452Z" fill="#A7AEB8"/>
<path d="M23.8082 34.1948V29.842H25.2319C25.7422 29.842 26.1453 29.9441 26.4311 30.1431C26.7168 30.3421 26.8597 30.6432 26.8597 31.0361C26.8597 31.2351 26.8087 31.4137 26.7066 31.5719C26.6046 31.7301 26.4515 31.8475 26.2525 31.9291C26.5229 31.9801 26.7271 32.0975 26.8648 32.2812C27.0026 32.4649 27.0689 32.6843 27.0689 32.9293C27.0689 33.3477 26.9312 33.659 26.6556 33.8733C26.3801 34.0876 25.9922 34.1948 25.4871 34.1948H23.8031H23.8082ZM24.6808 31.6638H25.2625C25.4973 31.6638 25.6759 31.6178 25.7983 31.5209C25.9208 31.4239 25.9871 31.2862 25.9871 31.1025C25.9871 30.9034 25.9259 30.7504 25.7983 30.6585C25.6708 30.5666 25.4819 30.5156 25.2319 30.5156H24.6808V31.6689V31.6638ZM24.6808 32.2659V33.5212H25.4922C25.7218 33.5212 25.9004 33.4702 26.0229 33.3681C26.1453 33.2661 26.2066 33.1181 26.2066 32.9191C26.2066 32.7099 26.1453 32.5466 26.028 32.4292C25.9106 32.3118 25.7269 32.2608 25.4871 32.2608H24.6859L24.6808 32.2659Z" fill="#A7AEB8"/>
<path d="M29.9776 33.2561H28.5641L28.2732 34.195H27.3598L28.8294 29.8423H29.7224L31.187 34.195H30.2735L29.9776 33.2561ZM28.7835 32.5672H29.7684L29.2887 31.0313H29.2683L28.7835 32.5672Z" fill="#A7AEB8"/>
<path d="M35.1264 34.195H34.2538L32.4984 31.2609H32.478V34.195H31.6054V29.8423H32.478L34.2334 32.7764H34.2538V29.8423H35.1264V34.195Z" fill="#A7AEB8"/>
<path d="M37.1216 32.3733H36.8001V34.1899H35.9276V29.8372H36.8001V31.6181H37.0451L38.2392 29.8372H39.321L37.8156 31.863L39.4383 34.1899H38.3259L37.1216 32.3733Z" fill="#A7AEB8"/>
<path d="M44.8729 34.195H44.0003L42.2449 31.2609H42.2245V34.195H41.3519V29.8423H42.2245L43.9799 32.7764H44.0003V29.8423H44.8729V34.195Z" fill="#A7AEB8"/>
<path d="M47.9958 33.2561H46.5823L46.2915 34.195H45.3781L46.8477 29.8423H47.7407L49.2052 34.195H48.2918L47.9958 33.2561ZM46.8018 32.5672H47.7866L47.3069 31.0313H47.2865L46.8018 32.5672Z" fill="#A7AEB8"/>
<path d="M51.874 33.0469H51.8944L53.012 29.8372H54.1499V34.1899H53.2773V31.22H53.2569L52.1802 34.1899H51.5883L50.5116 31.2098H50.4912V34.1899H49.6186V29.8372H50.7616L51.8689 33.0469H51.874Z" fill="#A7AEB8"/>
<path d="M57.4413 32.2815H55.8287V33.5266H57.7474V34.195H54.9561V29.8423H57.7423V30.5159H55.8287V31.6079H57.4413V32.2815Z" fill="#A7AEB8"/>
<path d="M118 80.8997C116.786 81.8119 116 83.2642 116 84.9C116 86.5358 116.786 87.9882 118 88.9004C117.164 89.5281 116.126 89.9 115 89.9C112.239 89.9 110 87.6614 110 84.9C110 82.1386 112.239 79.9 115 79.9C116.126 79.9 117.164 80.272 118 80.8997Z" fill="#A4B0BE"/>
<path d="M118 88.9004C116.786 87.9882 116 86.5358 116 84.9C116 83.2642 116.786 81.8119 118 80.8997C119.214 81.8119 120 83.2642 120 84.9C120 86.5358 119.214 87.9882 118 88.9004Z" fill="#B4BDC8"/>
<path d="M118 88.9004C119.214 87.9882 120 86.5358 120 84.9C120 83.2642 119.214 81.8119 118 80.8997C118.836 80.272 119.874 79.9 121 79.9C123.761 79.9 126 82.1386 126 84.9C126 87.6614 123.761 89.9 121 89.9C119.874 89.9 118.836 89.5281 118 88.9004Z" fill="#C6CED9"/>
</g>
<defs>
<filter id="filter0_dddd_1286_50877" x="0" y="18.6315" width="136" height="92.0741" filterUnits="userSpaceOnUse" color-interpolation-filters="sRGB">
<feFlood flood-opacity="0" result="BackgroundImageFix"/>
<feColorMatrix in="SourceAlpha" type="matrix" values="0 0 0 0 0 0 0 0 0 0 0 0 0 0 0 0 0 0 127 0" result="hardAlpha"/>
<feOffset dy="1"/>
<feGaussianBlur stdDeviation="0.5"/>
<feColorMatrix type="matrix" values="0 0 0 0 0 0 0 0 0 0 0 0 0 0 0 0 0 0 0.1 0"/>
<feBlend mode="normal" in2="BackgroundImageFix" result="effect1_dropShadow_1286_50877"/>
<feColorMatrix in="SourceAlpha" type="matrix" values="0 0 0 0 0 0 0 0 0 0 0 0 0 0 0 0 0 0 127 0" result="hardAlpha"/>
<feOffset dx="-2" dy="2"/>
<feGaussianBlur stdDeviation="1.5"/>
<feColorMatrix type="matrix" values="0 0 0 0 0 0 0 0 0 0 0 0 0 0 0 0 0 0 0.09 0"/>
<feBlend mode="normal" in2="effect1_dropShadow_1286_50877" result="effect2_dropShadow_1286_50877"/>
<feColorMatrix in="SourceAlpha" type="matrix" values="0 0 0 0 0 0 0 0 0 0 0 0 0 0 0 0 0 0 127 0" result="hardAlpha"/>
<feOffset dx="-4" dy="5"/>
<feGaussianBlur stdDeviation="2"/>
<feColorMatrix type="matrix" values="0 0 0 0 0 0 0 0 0 0 0 0 0 0 0 0 0 0 0.05 0"/>
<feBlend mode="normal" in2="effect2_dropShadow_1286_50877" result="effect3_dropShadow_1286_50877"/>
<feColorMatrix in="SourceAlpha" type="matrix" values="0 0 0 0 0 0 0 0 0 0 0 0 0 0 0 0 0 0 127 0" result="hardAlpha"/>
<feOffset dx="-7" dy="9"/>
<feGaussianBlur stdDeviation="2"/>
<feColorMatrix type="matrix" values="0 0 0 0 0 0 0 0 0 0 0 0 0 0 0 0 0 0 0.01 0"/>
<feBlend mode="normal" in2="effect3_dropShadow_1286_50877" result="effect4_dropShadow_1286_50877"/>
<feBlend mode="normal" in="SourceGraphic" in2="effect4_dropShadow_1286_50877" result="shape"/>
</filter>
<linearGradient id="paint0_linear_1286_50877" x1="39.5" y1="104.9" x2="117.5" y2="104.9" gradientUnits="userSpaceOnUse">
<stop stop-color="#D8D8D8"/>
<stop offset="1" stop-color="white"/>
</linearGradient>
<linearGradient id="paint1_linear_1286_50877" x1="106.5" y1="11.9" x2="28.5" y2="11.9" gradientUnits="userSpaceOnUse">
<stop stop-color="#D8D8D8"/>
<stop offset="1" stop-color="white"/>
</linearGradient>
<linearGradient id="paint2_linear_1286_50877" x1="124.5" y1="17.4" x2="55" y2="82.9" gradientUnits="userSpaceOnUse">
<stop stop-color="#F4F6F5"/>
<stop offset="0.62" stop-color="#E5E9ED"/>
<stop offset="1" stop-color="#D9E2EB"/>
</linearGradient>
<linearGradient id="paint3_linear_1286_50877" x1="-68" y1="54.4" x2="82" y2="54.4" gradientUnits="userSpaceOnUse">
<stop stop-color="#D9E2EB"/>
<stop offset="0.38" stop-color="#E5E9ED"/>
<stop offset="1" stop-color="#F4F6F5"/>
</linearGradient>
<linearGradient id="paint4_linear_1286_50877" x1="122.5" y1="19.9" x2="18" y2="97.9" gradientUnits="userSpaceOnUse">
<stop stop-color="white"/>
<stop offset="1" stop-color="#EFEFEF"/>
</linearGradient>
<linearGradient id="paint5_linear_1286_50877" x1="24.4104" y1="54.2953" x2="39.4996" y2="43.9262" gradientUnits="userSpaceOnUse">
<stop stop-color="#FAFAFC"/>
<stop offset="0.58" stop-color="#D0D7DF"/>
<stop offset="1" stop-color="#B9C3CF"/>
</linearGradient>
</defs>
</svg>
